<svg id="Layer_1" data-name="Layer 1" xmlns="http://www.w3.org/2000/svg" viewBox="0 0 290 53.78"><defs><style>.cls-1{fill:#231f20;}.cls-2{fill:#008fd0;}</style></defs><title>HL Logo Sans Cross</title><path class="cls-1" d="M15,131.08v18.34h20.1V131.08h8.68v45.79H35.14V156.69H15v20.18H6.36V131.08Z" transform="translate(-6.36 -123.78)"/><path class="cls-1" d="M56,163.64c.21,5.57,5,8,10.58,8a30.55,30.55,0,0,0,9.52-1.39l1.27,5.31a34,34,0,0,1-12,2c-11.14,0-17.7-6.13-17.7-15.56,0-8.54,5.78-16.57,16.79-16.57s14.81,8.22,14.81,15a17.14,17.14,0,0,1-.28,3.29Zm15.09-5.44c.07-2.85-1.34-7.53-7.12-7.53-5.36,0-7.62,4.37-8,7.53Z" transform="translate(-6.36 -123.78)"/><path class="cls-1" d="M110,169.46a37.27,37.27,0,0,0,.56,7.4H102.7l-.64-3.42h-.21c-2,2.41-5.64,4.11-10.16,4.11-6.91,0-10.79-4.49-10.79-9.17,0-7.72,7.69-11.7,20.38-11.64v-.51c0-2-.92-5.38-7-5.38a19.8,19.8,0,0,0-9.24,2.28l-1.69-5.06a27,27,0,0,1,12.41-2.72c11,0,14.18,6.26,14.18,13Zm-8.46-7.66c-6.13-.06-12,1.07-12,5.76,0,3,2.19,4.43,4.94,4.43a7.12,7.12,0,0,0,6.84-4.24,4.79,4.79,0,0,0,.21-1.71Z" transform="translate(-6.36 -123.78)"/><path class="cls-1" d="M116,131.95h8.68v44.92H116Z" transform="translate(-6.36 -123.78)"/><path class="cls-1" d="M141.06,138.15v7.91h8.25v5.82h-8.25v13.6c0,3.79,1.13,5.7,4.44,5.7a12.59,12.59,0,0,0,3.38-.32l.14,5.88a21,21,0,0,1-6.28.82c-3.25,0-5.85-.95-7.48-2.53-1.91-1.77-2.75-4.62-2.75-8.67V151.88h-4.87v-5.82h4.87V140.3Z" transform="translate(-6.36 -123.78)"/><path class="cls-1" d="M152.74,131.95h8.68v18.28h.14a11.07,11.07,0,0,1,4.3-3.48,13.35,13.35,0,0,1,6-1.39c5.85,0,12,3.48,12,13.35v18.16h-8.67V159.53c0-4.43-1.84-7.84-6.63-7.84a7.21,7.21,0,0,0-6.77,4.37,6.32,6.32,0,0,0-.35,2.34v18.48h-8.68Z" transform="translate(-6.36 -123.78)"/><polygon class="cls-2" points="212.69 46.63 195.91 46.63 195.91 6.99 201.46 6.97 201.46 0.71 182.65 0.71 182.65 7.06 188.2 6.99 188.2 46.62 182.65 46.56 182.65 52.87 219.38 52.87 219.38 40.94 212.66 40.94 212.69 46.63"/><rect class="cls-2" x="229" y="0.71" width="7.7" height="7.84"/><polygon class="cls-2" points="235.72 17 222.46 17 222.46 23.15 228.01 23.26 228.01 46.63 222.46 46.65 222.46 52.87 241.27 52.87 241.27 46.65 235.72 46.63 235.72 17"/><path class="cls-2" d="M273.2,124.51c-1-.23-1.85-.41-2.64-.53a15.27,15.27,0,0,0-2.41-.19c-3.8,0-6.82,1.13-9,3.37s-3.22,5.41-3.22,9.46v4.17H250.2v6H256v23.67l-5.55.1v6.13h18.81v-6.22l-5.55,0V146.74h7.7v-6h-7.7v-4.17a7.46,7.46,0,0,1,1.32-4.78,4.83,4.83,0,0,1,4-1.57,14.3,14.3,0,0,1,1.73.1,13.68,13.68,0,0,1,1.43.23l.52.12,1-6.09Z" transform="translate(-6.36 -123.78)"/><path class="cls-2" d="M295.28,170.27l-.49.11c-.48.11-1.09.22-1.81.32-2.06.28-3.46.18-4.42-.77a4.59,4.59,0,0,1-.92-3.29v-19.9h7v-6h-7v-8.89h-7.7v8.89h-5.83v6h5.83v19.9c0,3.64.86,6.36,2.56,8.1a9.2,9.2,0,0,0,6.86,2.62,18.32,18.32,0,0,0,3.78-.4,8.93,8.93,0,0,0,3-1.07l.28-.18Z" transform="translate(-6.36 -123.78)"/></svg>