<?xml version="1.0" encoding="utf-8"?>
<svg version="1.1" id="Layer_1" xmlns="http://www.w3.org/2000/svg" xmlns:xlink="http://www.w3.org/1999/xlink" x="0px" y="0px"
	 width="131px" height="131px" viewBox="0 0 131 131" enable-background="new 0 0 131 131" xml:space="preserve">
<g>
	<g>
		<g>
			<path fill="#FFFFFF" d="M165.735,22.572v34.373h37.673V22.572h16.261v85.811h-16.261V70.569h-37.673v37.813h-16.259V22.572
				H165.735z"/>
			<path fill="#FFFFFF" d="M242.437,83.6c0.398,10.436,9.389,14.94,19.831,14.94c7.534,0,12.82-1.066,17.843-2.607l2.382,9.956
				c-5.552,2.135-13.219,3.677-22.471,3.677c-20.885,0-33.182-11.498-33.182-29.166c0-16.007,10.84-31.064,31.464-31.064
				c20.882,0,27.757,15.41,27.757,28.1c0,2.727-0.266,4.862-0.531,6.165H242.437z M270.726,73.404
				c0.131-5.338-2.509-14.109-13.351-14.109c-10.047,0-14.274,8.182-14.938,14.109H270.726z"/>
			<path fill="#FFFFFF" d="M343.655,94.509c0,5.215,0.263,10.314,1.059,13.874h-14.671l-1.191-6.406h-0.396
				c-3.832,4.508-10.575,7.709-19.036,7.709c-12.951,0-20.223-8.419-20.223-17.192c0-14.467,14.409-21.936,38.202-21.817v-0.95
				c0-3.79-1.718-10.076-13.088-10.076c-6.345,0-12.952,1.78-17.318,4.271l-3.17-9.486c4.76-2.61,13.087-5.099,23.264-5.099
				c20.623,0,26.568,11.738,26.568,24.421V94.509z M327.793,80.161c-11.496-0.12-22.472,2.015-22.472,10.788
				c0,5.693,4.099,8.302,9.254,8.302c6.609,0,11.235-3.792,12.824-7.942c0.394-1.072,0.394-2.137,0.394-3.206V80.161z"/>
			<path fill="#FFFFFF" d="M355.044,24.199h16.262v84.184h-16.262V24.199z"/>
			<path fill="#FFFFFF" d="M401.931,35.819v14.819h15.465v10.908h-15.465v25.49c0,7.112,2.113,10.676,8.328,10.676
				c2.905,0,4.493-0.124,6.344-0.596l0.265,11.025c-2.38,0.832-6.743,1.543-11.765,1.543c-6.083,0-10.97-1.778-14.012-4.742
				c-3.571-3.32-5.153-8.657-5.153-16.249V61.547h-9.124V50.639h9.124V39.851L401.931,35.819z"/>
			<path fill="#FFFFFF" d="M423.821,24.199h16.262v34.266h0.265c1.981-2.728,4.757-4.98,8.062-6.522
				c3.303-1.658,7.138-2.607,11.235-2.607c10.97,0,22.469,6.52,22.469,25.015v34.033h-16.255V75.892c0-8.3-3.439-14.7-12.428-14.7
				c-6.345,0-10.837,3.793-12.689,8.182c-0.527,1.303-0.658,2.841-0.658,4.383v34.627h-16.262V24.199z"/>
		</g>
		<g>
			<polygon fill="#FFFFFF" points="548.106,96.278 516.64,96.278 516.64,21.979 527.049,21.943 527.049,10.224 491.793,10.224
				491.793,22.11 502.2,21.995 502.2,96.268 491.793,96.144 491.793,107.973 560.631,107.973 560.631,85.613 548.04,85.613 			"/>
			<rect x="578.672" y="10.224" fill="#FFFFFF" width="14.439" height="14.696"/>
			<polygon fill="#FFFFFF" points="591.252,40.744 566.404,40.744 566.404,52.282 576.813,52.481 576.813,96.282 566.404,96.314
				566.404,107.973 601.658,107.973 601.658,96.314 591.252,96.282 			"/>
			<path fill="#FFFFFF" d="M649.574,10.25c-1.811-0.43-3.475-0.767-4.954-1.002c-1.516-0.243-3.035-0.361-4.52-0.361
				c-7.126,0-12.776,2.127-16.792,6.317c-4.005,4.184-6.036,10.146-6.036,17.726v7.814H606.48v11.183h10.792v44.367l-10.408,0.186
				v11.493h35.253V96.314l-10.408-0.032V51.927h14.432V40.744h-14.432V32.93c0-3.931,0.833-6.949,2.473-8.957
				c1.616-1.984,4.075-2.951,7.518-2.951c1.114,0,2.202,0.064,3.241,0.191c1.05,0.118,1.955,0.265,2.682,0.428l0.97,0.216
				l1.824-11.407L649.574,10.25z"/>
			<path fill="#FFFFFF" d="M690.958,96.027l-0.928,0.208c-0.901,0.206-2.044,0.403-3.401,0.594c-3.855,0.53-6.493,0.336-8.288-1.435
				c-1.15-1.128-1.732-3.208-1.732-6.17V51.927h13.088V40.744h-13.088V24.082H662.17v16.662h-10.919v11.183h10.919v37.298
				c0,6.822,1.613,11.927,4.798,15.178c3.188,3.257,7.515,4.908,12.86,4.908c2.35,0,4.733-0.256,7.093-0.755
				c2.433-0.517,4.247-1.177,5.542-2.012l0.529-0.342L690.958,96.027z"/>
		</g>
	</g>
	<g>
		<g>
			<linearGradient id="SVGID_1_" gradientUnits="userSpaceOnUse" x1="7.0078" y1="65.5" x2="121.8662" y2="65.5">
				<stop  offset="0" style="stop-color:#F2F2F2"/>
				<stop  offset="1" style="stop-color:#929497"/>
			</linearGradient>
			<path fill="url(#SVGID_1_)" d="M64.435,8.071c-31.667,0-57.427,25.764-57.427,57.427c0,31.671,25.76,57.431,57.427,57.431
				c31.672,0,57.432-25.76,57.432-57.431C121.866,33.835,96.106,8.071,64.435,8.071z"/>
			<linearGradient id="SVGID_2_" gradientUnits="userSpaceOnUse" x1="120.1895" y1="65.5029" x2="8.6843" y2="65.5029">
				<stop  offset="0" style="stop-color:#F2F2F2"/>
				<stop  offset="1" style="stop-color:#929497"/>
			</linearGradient>
			<path fill="url(#SVGID_2_)" d="M64.435,9.938c-30.636,0-55.563,24.93-55.563,55.56c0,30.639,24.928,55.569,55.563,55.569
				c30.645,0,55.569-24.931,55.569-55.569C120.004,34.868,95.079,9.938,64.435,9.938z"/>
		</g>
		<linearGradient id="SVGID_3_" gradientUnits="userSpaceOnUse" x1="64.4375" y1="12.3818" x2="64.4375" y2="118.6221">
			<stop  offset="0" style="stop-color:#0088C3"/>
			<stop  offset="0.4061" style="stop-color:#0088CB"/>
			<stop  offset="1" style="stop-color:#0869A3"/>
		</linearGradient>
		<path fill="url(#SVGID_3_)" d="M64.485,12.387c-0.015,0-0.032-0.005-0.047-0.005c-29.291,0-53.118,23.834-53.118,53.116
			c0,29.29,23.827,53.124,53.118,53.124c0.015,0,0.032-0.004,0.047-0.004c29.276-0.022,53.07-23.844,53.07-53.12
			C117.556,36.231,93.762,12.409,64.485,12.387z"/>
		<g>
			<g>
				<linearGradient id="SVGID_4_" gradientUnits="userSpaceOnUse" x1="47.0947" y1="29.9326" x2="85.0277" y2="107.7406">
					<stop  offset="0" style="stop-color:#007DBA"/>
					<stop  offset="0.4061" style="stop-color:#0082C1"/>
					<stop  offset="1" style="stop-color:#087DC2"/>
				</linearGradient>
				<path fill="url(#SVGID_4_)" d="M114.662,65.505c0,27.738-22.485,50.227-50.224,50.227c-27.75,0-50.227-22.488-50.227-50.227
					c0-27.739,22.477-50.229,50.227-50.229C92.177,15.275,114.662,37.766,114.662,65.505z"/>
			</g>
		</g>
		<g>
			<linearGradient id="SVGID_5_" gradientUnits="userSpaceOnUse" x1="52.2314" y1="17.0312" x2="62.0902" y2="59.7343">
				<stop  offset="0" style="stop-color:#0088CB"/>
				<stop  offset="1" style="stop-color:#0072AA"/>
			</linearGradient>
			<path fill="url(#SVGID_5_)" d="M107.1,39.181c-8.846-14.318-24.637-23.886-42.703-23.886c-27.746,0-50.227,22.484-50.227,50.229
				c0,0.923,0.09,1.825,0.138,2.747c0.671,0.005,1.334,0.015,2.009,0.015C61.156,68.286,98.552,55.788,107.1,39.181z"/>
		</g>
		<g>
			<polygon fill="#E7F5FA" points="76.717,53.214 76.717,34.707 52.148,34.707 52.148,53.214 33.642,53.214 33.642,77.793
				52.148,77.793 76.717,77.793 			"/>
			<path fill="#FFFFFF" d="M76.717,53.214V34.707H52.148v18.507H33.642v14.4c16.263-1.204,31.024-4.073,43.083-8.14
				C76.725,56.392,76.717,53.214,76.717,53.214z"/>
		</g>
		<path d="M52.025,77.914h0.015v39.367c3.979,0.956,8.128,1.475,12.398,1.475c0,0,0.028-0.003,0.045-0.003
			c4.254-0.004,8.385-0.524,12.353-1.477v-39.26h39.249c0.954-3.977,1.471-8.118,1.471-12.384c0-4.273-0.521-8.428-1.479-12.412
			h-39.36C63.101,53.221,52.025,64.296,52.025,77.914z"/>
		<g>
			<g>
				<path fill="#FFFFFF" d="M65.883,113.348h-2.859v-8.572h2.859V113.348z M65.883,97.921h-2.859v-8.573h2.859V97.921z"/>
				<path fill="#FFFFFF" d="M65.883,82.493h-2.859l-0.016-4.768c0-1.801,0.343-3.55,1.019-5.203l2.649,1.083
					c-0.477,1.163-0.743,2.387-0.799,3.649L65.883,82.493z"/>
				<path fill="#FFFFFF" d="M70.725,68.671l-1.584-2.382C71.391,64.791,74.018,64,76.733,64h1.953v2.859h-1.953
					C74.584,66.859,72.506,67.485,70.725,68.671z M111.661,66.859h-9.16V64h9.16V66.859z M95.172,66.859h-9.156V64h9.156V66.859z"/>
			</g>
		</g>
		<g>
			<linearGradient id="SVGID_6_" gradientUnits="userSpaceOnUse" x1="43.5527" y1="20.0654" x2="65.019" y2="62.1953">
				<stop  offset="0" style="stop-color:#FFFFFF;stop-opacity:0.15"/>
				<stop  offset="1" style="stop-color:#FFFFFF;stop-opacity:0"/>
			</linearGradient>
			<path fill="url(#SVGID_6_)" d="M107.1,39.181c-8.846-14.318-24.637-23.886-42.703-23.886c-27.746,0-50.227,22.484-50.227,50.229
				c0,0.923,0.09,1.825,0.138,2.747c0.671,0.005,1.334,0.015,2.009,0.015C61.156,68.286,98.552,55.788,107.1,39.181z"/>
		</g>
	</g>
</g>
</svg>
